<svg width="1257.0" height="1377.0" viewBox="0 0 1257.0 1377.0" xmlns="http://www.w3.org/2000/svg">
 <!-- 下記矢印の参照のための要素 -->
 <defs>
   <marker id="arrow" viewBox="0 0 10 10" refX="10" refY="5" markerWidth="6" markerHeight="6">
     <path d="M 0 0 L 10 5 L 0 10 z" />
   </marker>
 </defs>
 <text x="16.0" y="40.0" font-size="30.0" fill="#000000">the screen transition diagram of XXX</text>
  <rect x="166.0" y="111.0" width="100.0" height="50.0" fill="#D5E8D4" stroke="#82B366" rx="4.0" ry="4.0" /> <a href="https://www.google.com">

  <text x="171.0" y="131.0" font-size="13.0" fill="blue">Splash</text>
  <text x="171.0" y="151.0" font-size="13.0" fill="blue">スプラッシュ</text>
 </a>
 <rect x="166.0" y="351.0" width="100.0" height="50.0" fill="#DAE8FC" stroke="#6C8EBF" rx="4.0" ry="4.0" />
 <text x="171.0" y="371.0" font-size="13.0" fill="#000000">Hoge1</text>
 <text x="171.0" y="391.0" font-size="13.0" fill="#000000">ほげ１</text>
 <rect x="166.0" y="911.0" width="100.0" height="50.0" fill="#FFFFFF" stroke="#000000" rx="4.0" ry="4.0" />
 <text x="171.0" y="931.0" font-size="13.0" fill="#000000">Hoge12</text>
 <text x="171.0" y="951.0" font-size="13.0" fill="#000000">ほげ12</text>
 <rect x="166.0" y="1231.0" width="100.0" height="50.0" fill="#FFE6CC" stroke="#D79B00" rx="4.0" ry="4.0" />
 <text x="171.0" y="1251.0" font-size="13.0" fill="#000000">Hoge1300</text>
 <text x="171.0" y="1271.0" font-size="13.0" fill="#000000">ほげ1300</text>
 <rect x="366.0" y="111.0" width="100.0" height="50.0" fill="#DAE8FC" stroke="#6C8EBF" rx="4.0" ry="4.0" />
 <text x="371.0" y="131.0" font-size="13.0" fill="#000000">Hoge1</text>
 <text x="371.0" y="151.0" font-size="13.0" fill="#000000">ほげ１</text>
 <rect x="366.0" y="191.0" width="100.0" height="50.0" fill="#FFFFFF" stroke="#000000" rx="4.0" ry="4.0" />
 <text x="371.0" y="211.0" font-size="13.0" fill="#000000">Hoge2</text>
 <text x="371.0" y="231.0" font-size="13.0" fill="#000000">ほげ2</text>
 <rect x="366.0" y="351.0" width="100.0" height="50.0" fill="#FFFFFF" stroke="#000000" rx="4.0" ry="4.0" />
 <text x="371.0" y="371.0" font-size="13.0" fill="#000000">Hoge10</text>
 <text x="371.0" y="391.0" font-size="13.0" fill="#000000">ほげ10</text>
 <rect x="366.0" y="591.0" width="100.0" height="50.0" fill="#FFFFFF" stroke="#000000" rx="4.0" ry="4.0" />
 <text x="371.0" y="611.0" font-size="13.0" fill="#000000">Hoge11</text>
 <text x="371.0" y="631.0" font-size="13.0" fill="#000000">ほげ11</text>
 <rect x="366.0" y="671.0" width="100.0" height="50.0" fill="#FFFFFF" stroke="#000000" rx="4.0" ry="4.0" />
 <text x="371.0" y="691.0" font-size="13.0" fill="#000000">Hoge12</text>
 <text x="371.0" y="711.0" font-size="13.0" fill="#000000">ほげ12</text>
 <rect x="366.0" y="751.0" width="100.0" height="50.0" fill="#FFFFFF" stroke="#000000" rx="4.0" ry="4.0" />
 <text x="371.0" y="771.0" font-size="13.0" fill="#000000">Hoge13</text>
 <text x="371.0" y="791.0" font-size="13.0" fill="#000000">ほげ13</text>
 <rect x="366.0" y="911.0" width="100.0" height="50.0" fill="#FFFFFF" stroke="#000000" rx="4.0" ry="4.0" />
 <text x="371.0" y="931.0" font-size="13.0" fill="#000000">Hoge121</text>
 <text x="371.0" y="951.0" font-size="13.0" fill="#000000">ほげ121</text>
 <rect x="366.0" y="991.0" width="100.0" height="50.0" fill="#FFFFFF" stroke="#000000" rx="4.0" ry="4.0" />
 <text x="371.0" y="1011.0" font-size="13.0" fill="#000000">Hoge122</text>
 <text x="371.0" y="1031.0" font-size="13.0" fill="#000000">ほげ122</text>
 <rect x="366.0" y="1071.0" width="100.0" height="50.0" fill="#FFFFFF" stroke="#000000" rx="4.0" ry="4.0" />
 <text x="371.0" y="1091.0" font-size="13.0" fill="#000000">Hoge123</text>
 <text x="371.0" y="1111.0" font-size="13.0" fill="#000000">ほげ122</text>
 <rect x="366.0" y="1151.0" width="100.0" height="50.0" fill="#FFE6CC" stroke="#D79B00" rx="4.0" ry="4.0" />
 <text x="371.0" y="1171.0" font-size="13.0" fill="#000000">Hoge1300</text>
 <text x="371.0" y="1191.0" font-size="13.0" fill="#000000">ほげ1300</text>
 <rect x="366.0" y="1231.0" width="100.0" height="50.0" fill="#FFFFFF" stroke="#000000" rx="4.0" ry="4.0" />
 <text x="371.0" y="1251.0" font-size="13.0" fill="#000000">Hoge13000</text>
 <text x="371.0" y="1271.0" font-size="13.0" fill="#000000">ほげ13000</text>
 <rect x="641.0" y="191.0" width="100.0" height="50.0" fill="#FFFFFF" stroke="#000000" rx="4.0" ry="4.0" />
 <text x="646.0" y="211.0" font-size="13.0" fill="#000000">Hoge20</text>
 <text x="646.0" y="231.0" font-size="13.0" fill="#000000">ほげ20</text>
 <rect x="641.0" y="271.0" width="100.0" height="50.0" fill="#FFFFFF" stroke="#000000" rx="4.0" ry="4.0" />
 <text x="646.0" y="291.0" font-size="13.0" fill="#000000">Hoge21</text>
 <text x="646.0" y="311.0" font-size="13.0" fill="#000000">ほげ21</text>
 <rect x="641.0" y="351.0" width="100.0" height="50.0" fill="#FFFFFF" stroke="#000000" rx="4.0" ry="4.0" />
 <text x="646.0" y="371.0" font-size="13.0" fill="#000000">Hoge101</text>
 <text x="646.0" y="391.0" font-size="13.0" fill="#000000">ほげ101</text>
 <rect x="641.0" y="431.0" width="100.0" height="50.0" fill="#FFFFFF" stroke="#000000" rx="4.0" ry="4.0" />
 <text x="646.0" y="451.0" font-size="13.0" fill="#000000">Hoge102</text>
 <text x="646.0" y="471.0" font-size="13.0" fill="#000000">ほげ102</text>
 <rect x="641.0" y="511.0" width="100.0" height="50.0" fill="#FFFFFF" stroke="#000000" rx="4.0" ry="4.0" />
 <text x="646.0" y="531.0" font-size="13.0" fill="#000000">Hoge103</text>
 <text x="646.0" y="551.0" font-size="13.0" fill="#000000">ほげ103</text>
 <rect x="641.0" y="591.0" width="100.0" height="50.0" fill="#FFFFFF" stroke="#000000" rx="4.0" ry="4.0" />
 <text x="646.0" y="611.0" font-size="13.0" fill="#000000">Hoge111</text>
 <text x="646.0" y="631.0" font-size="13.0" fill="#000000">ほげ111</text>
 <rect x="641.0" y="751.0" width="100.0" height="50.0" fill="#FFFFFF" stroke="#000000" rx="4.0" ry="4.0" />
 <text x="646.0" y="771.0" font-size="13.0" fill="#000000">Hoge130</text>
 <text x="646.0" y="791.0" font-size="13.0" fill="#000000">ほげ130</text>
 <rect x="641.0" y="911.0" width="100.0" height="50.0" fill="#DAE8FC" stroke="#6C8EBF" rx="4.0" ry="4.0" />
 <text x="646.0" y="931.0" font-size="13.0" fill="#000000">Hoge1</text>
 <text x="646.0" y="951.0" font-size="13.0" fill="#000000">ほげ１</text>
 <rect x="641.0" y="1231.0" width="100.0" height="50.0" fill="#FFFFFF" stroke="#000000" rx="4.0" ry="4.0" />
 <text x="646.0" y="1251.0" font-size="13.0" fill="#000000">Hoge130001</text>
 <text x="646.0" y="1271.0" font-size="13.0" fill="#000000">ほげ130001</text>
 <rect x="866.0" y="751.0" width="100.0" height="50.0" fill="#FFE6CC" stroke="#D79B00" rx="4.0" ry="4.0" />
 <text x="871.0" y="771.0" font-size="13.0" fill="#000000">Hoge1300</text>
 <text x="871.0" y="791.0" font-size="13.0" fill="#000000">ほげ1300</text>
 <rect x="866.0" y="831.0" width="100.0" height="50.0" fill="#FFFFFF" stroke="#000000" rx="4.0" ry="4.0" />
 <text x="871.0" y="851.0" font-size="13.0" fill="#000000">Hoge1301</text>
 <text x="871.0" y="871.0" font-size="13.0" fill="#000000">ほげ1301</text>
 <rect x="866.0" y="1231.0" width="100.0" height="50.0" fill="#FFFFFF" stroke="#000000" rx="4.0" ry="4.0" />
 <text x="871.0" y="1251.0" font-size="13.0" fill="#000000">Hoge1300010</text>
 <text x="871.0" y="1271.0" font-size="13.0" fill="#000000">ほげ1300010</text>
 <rect x="866.0" y="1311.0" width="100.0" height="50.0" fill="#FFFFFF" stroke="#000000" rx="4.0" ry="4.0" />
 <text x="871.0" y="1331.0" font-size="13.0" fill="#000000">Hoge12</text>
 <text x="871.0" y="1351.0" font-size="13.0" fill="#000000">ほげ12</text>
 <rect x="1116.0" y="1231.0" width="100.0" height="50.0" fill="#DAE8FC" stroke="#6C8EBF" rx="4.0" ry="4.0" />
 <text x="1121.0" y="1251.0" font-size="13.0" fill="#000000">Hoge1</text>
 <text x="1121.0" y="1271.0" font-size="13.0" fill="#000000">ほげ１</text>
 <line x1="266.0" y1="136.0" x2="366.0" y2="136.0" stroke="#000000" stroke-width="1.0" marker-end="url(#arrow)" />
 <line x1="316.0" y1="136.0" x2="316.0" y2="216.0" stroke="#000000" stroke-width="1.0" />
 <line x1="316.0" y1="216.0" x2="366.0" y2="216.0" stroke="#000000" stroke-width="1.0" marker-end="url(#arrow)" />
 <line x1="266.0" y1="376.0" x2="366.0" y2="376.0" stroke="#000000" stroke-width="1.0" marker-end="url(#arrow)" />
 <line x1="316.0" y1="376.0" x2="316.0" y2="776.0" stroke="#000000" stroke-width="1.0" />
 <line x1="316.0" y1="616.0" x2="366.0" y2="616.0" stroke="#000000" stroke-width="1.0" marker-end="url(#arrow)" />
 <line x1="316.0" y1="696.0" x2="366.0" y2="696.0" stroke="#000000" stroke-width="1.0" marker-end="url(#arrow)" />
 <line x1="316.0" y1="776.0" x2="366.0" y2="776.0" stroke="#000000" stroke-width="1.0" marker-end="url(#arrow)" />
 <line x1="266.0" y1="936.0" x2="366.0" y2="936.0" stroke="#000000" stroke-width="1.0" marker-end="url(#arrow)" />
 <line x1="316.0" y1="936.0" x2="316.0" y2="1176.0" stroke="#000000" stroke-width="1.0" />
 <line x1="316.0" y1="1016.0" x2="366.0" y2="1016.0" stroke="#000000" stroke-width="1.0" marker-end="url(#arrow)" />
 <line x1="316.0" y1="1096.0" x2="366.0" y2="1096.0" stroke="#000000" stroke-width="1.0" marker-end="url(#arrow)" />
 <line x1="316.0" y1="1176.0" x2="366.0" y2="1176.0" stroke="#000000" stroke-width="1.0" marker-end="url(#arrow)" />
 <line x1="266.0" y1="1256.0" x2="366.0" y2="1256.0" stroke="#000000" stroke-width="1.0" marker-end="url(#arrow)" />
 <line x1="466.0" y1="216.0" x2="641.0" y2="216.0" stroke="#000000" stroke-width="1.0" marker-end="url(#arrow)" />
 <line x1="591.0" y1="216.0" x2="591.0" y2="296.0" stroke="#000000" stroke-width="1.0" />
 <line x1="591.0" y1="296.0" x2="641.0" y2="296.0" stroke="#000000" stroke-width="1.0" marker-end="url(#arrow)" />
 <line x1="466.0" y1="376.0" x2="641.0" y2="376.0" stroke="#000000" stroke-width="1.0" marker-end="url(#arrow)" />
 <line x1="591.0" y1="376.0" x2="591.0" y2="536.0" stroke="#000000" stroke-width="1.0" />
 <line x1="591.0" y1="456.0" x2="641.0" y2="456.0" stroke="#000000" stroke-width="1.0" marker-end="url(#arrow)" />
 <line x1="591.0" y1="536.0" x2="641.0" y2="536.0" stroke="#000000" stroke-width="1.0" marker-end="url(#arrow)" />
 <line x1="466.0" y1="616.0" x2="641.0" y2="616.0" stroke="#000000" stroke-width="1.0" marker-end="url(#arrow)" />
 <line x1="466.0" y1="776.0" x2="641.0" y2="776.0" stroke="#000000" stroke-width="1.0" marker-end="url(#arrow)" />
 <line x1="466.0" y1="936.0" x2="641.0" y2="936.0" stroke="#000000" stroke-width="1.0" marker-end="url(#arrow)" />
 <line x1="466.0" y1="1256.0" x2="641.0" y2="1256.0" stroke="#000000" stroke-width="1.0" marker-end="url(#arrow)" />
 <line x1="741.0" y1="776.0" x2="866.0" y2="776.0" stroke="#000000" stroke-width="1.0" marker-end="url(#arrow)" />
 <line x1="816.0" y1="776.0" x2="816.0" y2="856.0" stroke="#000000" stroke-width="1.0" />
 <line x1="816.0" y1="856.0" x2="866.0" y2="856.0" stroke="#000000" stroke-width="1.0" marker-end="url(#arrow)" />
 <line x1="741.0" y1="1256.0" x2="866.0" y2="1256.0" stroke="#000000" stroke-width="1.0" marker-end="url(#arrow)" />
 <line x1="816.0" y1="1256.0" x2="816.0" y2="1336.0" stroke="#000000" stroke-width="1.0" />
 <line x1="816.0" y1="1336.0" x2="866.0" y2="1336.0" stroke="#000000" stroke-width="1.0" marker-end="url(#arrow)" />
 <line x1="966.0" y1="1256.0" x2="1116.0" y2="1256.0" stroke="#000000" stroke-width="1.0" marker-end="url(#arrow)" />
 <line x1="116.0" y1="376.0" x2="166.0" y2="376.0" stroke="#6C8EBF" stroke-width="1.0" marker-end="url(#arrow)" stroke-dasharray="5,5" />
 <line x1="116.0" y1="96.0" x2="116.0" y2="376.0" stroke="#6C8EBF" stroke-width="1.0" stroke-dasharray="5,5" />
 <line x1="116.0" y1="96.0" x2="1241.0" y2="96.0" stroke="#6C8EBF" stroke-width="1.0" stroke-dasharray="5,5" />
 <line x1="66.0" y1="936.0" x2="166.0" y2="936.0" stroke="#000000" stroke-width="1.0" marker-end="url(#arrow)" stroke-dasharray="5,5" />
 <line x1="66.0" y1="81.0" x2="66.0" y2="936.0" stroke="#000000" stroke-width="1.0" stroke-dasharray="5,5" />
 <line x1="66.0" y1="81.0" x2="1016.0" y2="81.0" stroke="#000000" stroke-width="1.0" stroke-dasharray="5,5" />
 <line x1="16.0" y1="1256.0" x2="166.0" y2="1256.0" stroke="#D79B00" stroke-width="1.0" marker-end="url(#arrow)" stroke-dasharray="5,5" />
 <line x1="16.0" y1="66.0" x2="16.0" y2="1256.0" stroke="#D79B00" stroke-width="1.0" stroke-dasharray="5,5" />
 <line x1="16.0" y1="66.0" x2="991.0" y2="66.0" stroke="#D79B00" stroke-width="1.0" stroke-dasharray="5,5" />
 <line x1="466.0" y1="136.0" x2="491.0" y2="136.0" stroke="#6C8EBF" stroke-width="1.0" stroke-dasharray="5,5" />
 <line x1="491.0" y1="96.0" x2="491.0" y2="136.0" stroke="#6C8EBF" stroke-width="1.0" stroke-dasharray="5,5" />
 <line x1="466.0" y1="696.0" x2="516.0" y2="696.0" stroke="#000000" stroke-width="1.0" stroke-dasharray="5,5" />
 <line x1="516.0" y1="81.0" x2="516.0" y2="696.0" stroke="#000000" stroke-width="1.0" stroke-dasharray="5,5" />
 <line x1="466.0" y1="1176.0" x2="541.0" y2="1176.0" stroke="#D79B00" stroke-width="1.0" stroke-dasharray="5,5" />
 <line x1="541.0" y1="66.0" x2="541.0" y2="1176.0" stroke="#D79B00" stroke-width="1.0" stroke-dasharray="5,5" />
 <line x1="741.0" y1="936.0" x2="766.0" y2="936.0" stroke="#6C8EBF" stroke-width="1.0" stroke-dasharray="5,5" />
 <line x1="766.0" y1="96.0" x2="766.0" y2="936.0" stroke="#6C8EBF" stroke-width="1.0" stroke-dasharray="5,5" />
 <line x1="966.0" y1="776.0" x2="991.0" y2="776.0" stroke="#D79B00" stroke-width="1.0" stroke-dasharray="5,5" />
 <line x1="991.0" y1="66.0" x2="991.0" y2="776.0" stroke="#D79B00" stroke-width="1.0" stroke-dasharray="5,5" />
 <line x1="966.0" y1="1336.0" x2="1016.0" y2="1336.0" stroke="#000000" stroke-width="1.0" stroke-dasharray="5,5" />
 <line x1="1016.0" y1="81.0" x2="1016.0" y2="1336.0" stroke="#000000" stroke-width="1.0" stroke-dasharray="5,5" />
 <line x1="1216.0" y1="1256.0" x2="1241.0" y2="1256.0" stroke="#6C8EBF" stroke-width="1.0" stroke-dasharray="5,5" />
 <line x1="1241.0" y1="96.0" x2="1241.0" y2="1256.0" stroke="#6C8EBF" stroke-width="1.0" stroke-dasharray="5,5" />
</svg>