<svg width="1257.0" height="1327.0" viewBox="0 0 1257.0 1327.0" xmlns="http://www.w3.org/2000/svg">
 <!-- 下記矢印の参照のための要素 -->
 <defs>
   <marker id="arrow" viewBox="0 0 10 10" refX="10" refY="5" markerWidth="6" markerHeight="6">
     <path d="M 0 0 L 10 5 L 0 10 z" />
   </marker>
 </defs>
 <a href="https://www.google.com">
  <rect x="166.0" y="61.0" width="100.0" height="50.0" fill="#D5E8D4" stroke="#82B366" />
  <text x="171.0" y="81.0" font-size="13.0" fill="blue">Splash</text>
  <text x="171.0" y="101.0" font-size="13.0" fill="blue">スプラッシュ</text>
 </a>
 <rect x="166.0" y="301.0" width="100.0" height="50.0" fill="#DAE8FC" stroke="#6C8EBF" />
 <text x="171.0" y="321.0" font-size="13.0" fill="#000000">Hoge1</text>
 <text x="171.0" y="341.0" font-size="13.0" fill="#000000">ほげ１</text>
 <rect x="166.0" y="861.0" width="100.0" height="50.0" fill="#FFFFFF" stroke="#000000" />
 <text x="171.0" y="881.0" font-size="13.0" fill="#000000">Hoge12</text>
 <text x="171.0" y="901.0" font-size="13.0" fill="#000000">ほげ12</text>
 <rect x="166.0" y="1181.0" width="100.0" height="50.0" fill="#FFE6CC" stroke="#D79B00" />
 <text x="171.0" y="1201.0" font-size="13.0" fill="#000000">Hoge1300</text>
 <text x="171.0" y="1221.0" font-size="13.0" fill="#000000">ほげ1300</text>
 <rect x="366.0" y="61.0" width="100.0" height="50.0" fill="#DAE8FC" stroke="#6C8EBF" />
 <text x="371.0" y="81.0" font-size="13.0" fill="#000000">Hoge1</text>
 <text x="371.0" y="101.0" font-size="13.0" fill="#000000">ほげ１</text>
 <rect x="366.0" y="141.0" width="100.0" height="50.0" fill="#FFFFFF" stroke="#000000" />
 <text x="371.0" y="161.0" font-size="13.0" fill="#000000">Hoge2</text>
 <text x="371.0" y="181.0" font-size="13.0" fill="#000000">ほげ2</text>
 <rect x="366.0" y="301.0" width="100.0" height="50.0" fill="#FFFFFF" stroke="#000000" />
 <text x="371.0" y="321.0" font-size="13.0" fill="#000000">Hoge10</text>
 <text x="371.0" y="341.0" font-size="13.0" fill="#000000">ほげ10</text>
 <rect x="366.0" y="541.0" width="100.0" height="50.0" fill="#FFFFFF" stroke="#000000" />
 <text x="371.0" y="561.0" font-size="13.0" fill="#000000">Hoge11</text>
 <text x="371.0" y="581.0" font-size="13.0" fill="#000000">ほげ11</text>
 <rect x="366.0" y="621.0" width="100.0" height="50.0" fill="#FFFFFF" stroke="#000000" />
 <text x="371.0" y="641.0" font-size="13.0" fill="#000000">Hoge12</text>
 <text x="371.0" y="661.0" font-size="13.0" fill="#000000">ほげ12</text>
 <rect x="366.0" y="701.0" width="100.0" height="50.0" fill="#FFFFFF" stroke="#000000" />
 <text x="371.0" y="721.0" font-size="13.0" fill="#000000">Hoge13</text>
 <text x="371.0" y="741.0" font-size="13.0" fill="#000000">ほげ13</text>
 <rect x="366.0" y="861.0" width="100.0" height="50.0" fill="#FFFFFF" stroke="#000000" />
 <text x="371.0" y="881.0" font-size="13.0" fill="#000000">Hoge121</text>
 <text x="371.0" y="901.0" font-size="13.0" fill="#000000">ほげ121</text>
 <rect x="366.0" y="941.0" width="100.0" height="50.0" fill="#FFFFFF" stroke="#000000" />
 <text x="371.0" y="961.0" font-size="13.0" fill="#000000">Hoge122</text>
 <text x="371.0" y="981.0" font-size="13.0" fill="#000000">ほげ122</text>
 <rect x="366.0" y="1021.0" width="100.0" height="50.0" fill="#FFFFFF" stroke="#000000" />
 <text x="371.0" y="1041.0" font-size="13.0" fill="#000000">Hoge123</text>
 <text x="371.0" y="1061.0" font-size="13.0" fill="#000000">ほげ122</text>
 <rect x="366.0" y="1101.0" width="100.0" height="50.0" fill="#FFE6CC" stroke="#D79B00" />
 <text x="371.0" y="1121.0" font-size="13.0" fill="#000000">Hoge1300</text>
 <text x="371.0" y="1141.0" font-size="13.0" fill="#000000">ほげ1300</text>
 <rect x="366.0" y="1181.0" width="100.0" height="50.0" fill="#FFFFFF" stroke="#000000" />
 <text x="371.0" y="1201.0" font-size="13.0" fill="#000000">Hoge13000</text>
 <text x="371.0" y="1221.0" font-size="13.0" fill="#000000">ほげ13000</text>
 <rect x="641.0" y="141.0" width="100.0" height="50.0" fill="#FFFFFF" stroke="#000000" />
 <text x="646.0" y="161.0" font-size="13.0" fill="#000000">Hoge20</text>
 <text x="646.0" y="181.0" font-size="13.0" fill="#000000">ほげ20</text>
 <rect x="641.0" y="221.0" width="100.0" height="50.0" fill="#FFFFFF" stroke="#000000" />
 <text x="646.0" y="241.0" font-size="13.0" fill="#000000">Hoge21</text>
 <text x="646.0" y="261.0" font-size="13.0" fill="#000000">ほげ21</text>
 <rect x="641.0" y="301.0" width="100.0" height="50.0" fill="#FFFFFF" stroke="#000000" />
 <text x="646.0" y="321.0" font-size="13.0" fill="#000000">Hoge101</text>
 <text x="646.0" y="341.0" font-size="13.0" fill="#000000">ほげ101</text>
 <rect x="641.0" y="381.0" width="100.0" height="50.0" fill="#FFFFFF" stroke="#000000" />
 <text x="646.0" y="401.0" font-size="13.0" fill="#000000">Hoge102</text>
 <text x="646.0" y="421.0" font-size="13.0" fill="#000000">ほげ102</text>
 <rect x="641.0" y="461.0" width="100.0" height="50.0" fill="#FFFFFF" stroke="#000000" />
 <text x="646.0" y="481.0" font-size="13.0" fill="#000000">Hoge103</text>
 <text x="646.0" y="501.0" font-size="13.0" fill="#000000">ほげ103</text>
 <rect x="641.0" y="541.0" width="100.0" height="50.0" fill="#FFFFFF" stroke="#000000" />
 <text x="646.0" y="561.0" font-size="13.0" fill="#000000">Hoge111</text>
 <text x="646.0" y="581.0" font-size="13.0" fill="#000000">ほげ111</text>
 <rect x="641.0" y="701.0" width="100.0" height="50.0" fill="#FFFFFF" stroke="#000000" />
 <text x="646.0" y="721.0" font-size="13.0" fill="#000000">Hoge130</text>
 <text x="646.0" y="741.0" font-size="13.0" fill="#000000">ほげ130</text>
 <rect x="641.0" y="861.0" width="100.0" height="50.0" fill="#DAE8FC" stroke="#6C8EBF" />
 <text x="646.0" y="881.0" font-size="13.0" fill="#000000">Hoge1</text>
 <text x="646.0" y="901.0" font-size="13.0" fill="#000000">ほげ１</text>
 <rect x="641.0" y="1181.0" width="100.0" height="50.0" fill="#FFFFFF" stroke="#000000" />
 <text x="646.0" y="1201.0" font-size="13.0" fill="#000000">Hoge130001</text>
 <text x="646.0" y="1221.0" font-size="13.0" fill="#000000">ほげ130001</text>
 <rect x="866.0" y="701.0" width="100.0" height="50.0" fill="#FFE6CC" stroke="#D79B00" />
 <text x="871.0" y="721.0" font-size="13.0" fill="#000000">Hoge1300</text>
 <text x="871.0" y="741.0" font-size="13.0" fill="#000000">ほげ1300</text>
 <rect x="866.0" y="781.0" width="100.0" height="50.0" fill="#FFFFFF" stroke="#000000" />
 <text x="871.0" y="801.0" font-size="13.0" fill="#000000">Hoge1301</text>
 <text x="871.0" y="821.0" font-size="13.0" fill="#000000">ほげ1301</text>
 <rect x="866.0" y="1181.0" width="100.0" height="50.0" fill="#FFFFFF" stroke="#000000" />
 <text x="871.0" y="1201.0" font-size="13.0" fill="#000000">Hoge1300010</text>
 <text x="871.0" y="1221.0" font-size="13.0" fill="#000000">ほげ1300010</text>
 <rect x="866.0" y="1261.0" width="100.0" height="50.0" fill="#FFFFFF" stroke="#000000" />
 <text x="871.0" y="1281.0" font-size="13.0" fill="#000000">Hoge12</text>
 <text x="871.0" y="1301.0" font-size="13.0" fill="#000000">ほげ12</text>
 <rect x="1116.0" y="1181.0" width="100.0" height="50.0" fill="#DAE8FC" stroke="#6C8EBF" />
 <text x="1121.0" y="1201.0" font-size="13.0" fill="#000000">Hoge1</text>
 <text x="1121.0" y="1221.0" font-size="13.0" fill="#000000">ほげ１</text>
 <line x1="266.0" y1="86.0" x2="366.0" y2="86.0" stroke="#000000" stroke-width="1.0" marker-end="url(#arrow)" />
 <line x1="316.0" y1="86.0" x2="316.0" y2="166.0" stroke="#000000" stroke-width="1.0" />
 <line x1="316.0" y1="166.0" x2="366.0" y2="166.0" stroke="#000000" stroke-width="1.0" marker-end="url(#arrow)" />
 <line x1="266.0" y1="326.0" x2="366.0" y2="326.0" stroke="#000000" stroke-width="1.0" marker-end="url(#arrow)" />
 <line x1="316.0" y1="326.0" x2="316.0" y2="726.0" stroke="#000000" stroke-width="1.0" />
 <line x1="316.0" y1="566.0" x2="366.0" y2="566.0" stroke="#000000" stroke-width="1.0" marker-end="url(#arrow)" />
 <line x1="316.0" y1="646.0" x2="366.0" y2="646.0" stroke="#000000" stroke-width="1.0" marker-end="url(#arrow)" />
 <line x1="316.0" y1="726.0" x2="366.0" y2="726.0" stroke="#000000" stroke-width="1.0" marker-end="url(#arrow)" />
 <line x1="266.0" y1="886.0" x2="366.0" y2="886.0" stroke="#000000" stroke-width="1.0" marker-end="url(#arrow)" />
 <line x1="316.0" y1="886.0" x2="316.0" y2="1126.0" stroke="#000000" stroke-width="1.0" />
 <line x1="316.0" y1="966.0" x2="366.0" y2="966.0" stroke="#000000" stroke-width="1.0" marker-end="url(#arrow)" />
 <line x1="316.0" y1="1046.0" x2="366.0" y2="1046.0" stroke="#000000" stroke-width="1.0" marker-end="url(#arrow)" />
 <line x1="316.0" y1="1126.0" x2="366.0" y2="1126.0" stroke="#000000" stroke-width="1.0" marker-end="url(#arrow)" />
 <line x1="266.0" y1="1206.0" x2="366.0" y2="1206.0" stroke="#000000" stroke-width="1.0" marker-end="url(#arrow)" />
 <line x1="466.0" y1="166.0" x2="641.0" y2="166.0" stroke="#000000" stroke-width="1.0" marker-end="url(#arrow)" />
 <line x1="591.0" y1="166.0" x2="591.0" y2="246.0" stroke="#000000" stroke-width="1.0" />
 <line x1="591.0" y1="246.0" x2="641.0" y2="246.0" stroke="#000000" stroke-width="1.0" marker-end="url(#arrow)" />
 <line x1="466.0" y1="326.0" x2="641.0" y2="326.0" stroke="#000000" stroke-width="1.0" marker-end="url(#arrow)" />
 <line x1="591.0" y1="326.0" x2="591.0" y2="486.0" stroke="#000000" stroke-width="1.0" />
 <line x1="591.0" y1="406.0" x2="641.0" y2="406.0" stroke="#000000" stroke-width="1.0" marker-end="url(#arrow)" />
 <line x1="591.0" y1="486.0" x2="641.0" y2="486.0" stroke="#000000" stroke-width="1.0" marker-end="url(#arrow)" />
 <line x1="466.0" y1="566.0" x2="641.0" y2="566.0" stroke="#000000" stroke-width="1.0" marker-end="url(#arrow)" />
 <line x1="466.0" y1="726.0" x2="641.0" y2="726.0" stroke="#000000" stroke-width="1.0" marker-end="url(#arrow)" />
 <line x1="466.0" y1="886.0" x2="641.0" y2="886.0" stroke="#000000" stroke-width="1.0" marker-end="url(#arrow)" />
 <line x1="466.0" y1="1206.0" x2="641.0" y2="1206.0" stroke="#000000" stroke-width="1.0" marker-end="url(#arrow)" />
 <line x1="741.0" y1="726.0" x2="866.0" y2="726.0" stroke="#000000" stroke-width="1.0" marker-end="url(#arrow)" />
 <line x1="816.0" y1="726.0" x2="816.0" y2="806.0" stroke="#000000" stroke-width="1.0" />
 <line x1="816.0" y1="806.0" x2="866.0" y2="806.0" stroke="#000000" stroke-width="1.0" marker-end="url(#arrow)" />
 <line x1="741.0" y1="1206.0" x2="866.0" y2="1206.0" stroke="#000000" stroke-width="1.0" marker-end="url(#arrow)" />
 <line x1="816.0" y1="1206.0" x2="816.0" y2="1286.0" stroke="#000000" stroke-width="1.0" />
 <line x1="816.0" y1="1286.0" x2="866.0" y2="1286.0" stroke="#000000" stroke-width="1.0" marker-end="url(#arrow)" />
 <line x1="966.0" y1="1206.0" x2="1116.0" y2="1206.0" stroke="#000000" stroke-width="1.0" marker-end="url(#arrow)" />
 <line x1="116.0" y1="326.0" x2="166.0" y2="326.0" stroke="#6C8EBF" stroke-width="1.0" marker-end="url(#arrow)" stroke-dasharray="5,5" />
 <line x1="116.0" y1="46.0" x2="116.0" y2="326.0" stroke="#6C8EBF" stroke-width="1.0" stroke-dasharray="5,5" />
 <line x1="116.0" y1="46.0" x2="1241.0" y2="46.0" stroke="#6C8EBF" stroke-width="1.0" stroke-dasharray="5,5" />
 <line x1="66.0" y1="886.0" x2="166.0" y2="886.0" stroke="#000000" stroke-width="1.0" marker-end="url(#arrow)" stroke-dasharray="5,5" />
 <line x1="66.0" y1="31.0" x2="66.0" y2="886.0" stroke="#000000" stroke-width="1.0" stroke-dasharray="5,5" />
 <line x1="66.0" y1="31.0" x2="1016.0" y2="31.0" stroke="#000000" stroke-width="1.0" stroke-dasharray="5,5" />
 <line x1="16.0" y1="1206.0" x2="166.0" y2="1206.0" stroke="#D79B00" stroke-width="1.0" marker-end="url(#arrow)" stroke-dasharray="5,5" />
 <line x1="16.0" y1="16.0" x2="16.0" y2="1206.0" stroke="#D79B00" stroke-width="1.0" stroke-dasharray="5,5" />
 <line x1="16.0" y1="16.0" x2="991.0" y2="16.0" stroke="#D79B00" stroke-width="1.0" stroke-dasharray="5,5" />
 <line x1="466.0" y1="86.0" x2="491.0" y2="86.0" stroke="#6C8EBF" stroke-width="1.0" stroke-dasharray="5,5" />
 <line x1="491.0" y1="46.0" x2="491.0" y2="86.0" stroke="#6C8EBF" stroke-width="1.0" stroke-dasharray="5,5" />
 <line x1="466.0" y1="646.0" x2="516.0" y2="646.0" stroke="#000000" stroke-width="1.0" stroke-dasharray="5,5" />
 <line x1="516.0" y1="31.0" x2="516.0" y2="646.0" stroke="#000000" stroke-width="1.0" stroke-dasharray="5,5" />
 <line x1="466.0" y1="1126.0" x2="541.0" y2="1126.0" stroke="#D79B00" stroke-width="1.0" stroke-dasharray="5,5" />
 <line x1="541.0" y1="16.0" x2="541.0" y2="1126.0" stroke="#D79B00" stroke-width="1.0" stroke-dasharray="5,5" />
 <line x1="741.0" y1="886.0" x2="766.0" y2="886.0" stroke="#6C8EBF" stroke-width="1.0" stroke-dasharray="5,5" />
 <line x1="766.0" y1="46.0" x2="766.0" y2="886.0" stroke="#6C8EBF" stroke-width="1.0" stroke-dasharray="5,5" />
 <line x1="966.0" y1="726.0" x2="991.0" y2="726.0" stroke="#D79B00" stroke-width="1.0" stroke-dasharray="5,5" />
 <line x1="991.0" y1="16.0" x2="991.0" y2="726.0" stroke="#D79B00" stroke-width="1.0" stroke-dasharray="5,5" />
 <line x1="966.0" y1="1286.0" x2="1016.0" y2="1286.0" stroke="#000000" stroke-width="1.0" stroke-dasharray="5,5" />
 <line x1="1016.0" y1="31.0" x2="1016.0" y2="1286.0" stroke="#000000" stroke-width="1.0" stroke-dasharray="5,5" />
 <line x1="1216.0" y1="1206.0" x2="1241.0" y2="1206.0" stroke="#6C8EBF" stroke-width="1.0" stroke-dasharray="5,5" />
 <line x1="1241.0" y1="46.0" x2="1241.0" y2="1206.0" stroke="#6C8EBF" stroke-width="1.0" stroke-dasharray="5,5" />
</svg>